<?xml version="1.0" encoding="UTF-8"?>
<svg xmlns="http://www.w3.org/2000/svg" xmlns:xlink="http://www.w3.org/1999/xlink" width="40px" height="40px" viewBox="0 0 40 40" version="1.1">
<g id="surface1">
<path style=" stroke:none;fill-rule:nonzero;fill:rgb(0%,0%,0%);fill-opacity:1;" d="M 35.589844 4.105469 C 35.871094 4.363281 36.015625 4.554688 36.039062 4.933594 C 36.027344 5.558594 35.738281 6.117188 35.503906 6.683594 C 35.457031 6.820312 35.402344 6.953125 35.347656 7.085938 C 35.199219 7.445312 35.054688 7.800781 34.910156 8.160156 C 34.765625 8.539062 34.609375 8.917969 34.453125 9.296875 C 34.207031 9.921875 33.949219 10.558594 33.695312 11.183594 C 33.335938 12.066406 32.980469 12.945312 32.632812 13.816406 C 32.578125 13.960938 32.523438 14.097656 32.464844 14.230469 C 32.378906 14.441406 32.300781 14.644531 32.222656 14.855469 C 32.019531 15.335938 31.832031 15.816406 31.628906 16.304688 C 30.847656 18.257812 30.066406 20.222656 29.285156 22.1875 C 28.246094 24.777344 27.222656 27.355469 26.183594 29.945312 C 26.148438 30.011719 26.128906 30.066406 26.105469 30.132812 C 25.972656 30.457031 25.835938 30.78125 25.714844 31.09375 C 25.445312 31.773438 25.167969 32.445312 24.898438 33.125 C 24.820312 33.335938 24.730469 33.558594 24.644531 33.773438 C 24.585938 33.917969 24.53125 34.050781 24.488281 34.183594 C 24.410156 34.386719 24.332031 34.574219 24.253906 34.765625 C 24.230469 34.820312 24.207031 34.878906 24.183594 34.933594 C 24.007812 35.378906 23.839844 35.792969 23.371094 36.003906 C 23.023438 36.050781 22.734375 36.050781 22.410156 35.894531 C 22.054688 35.570312 21.910156 35.179688 21.742188 34.742188 C 21.71875 34.675781 21.695312 34.621094 21.675781 34.554688 C 21.597656 34.339844 21.519531 34.140625 21.441406 33.929688 C 21.382812 33.785156 21.328125 33.636719 21.273438 33.492188 C 21.148438 33.179688 21.039062 32.878906 20.925781 32.578125 C 20.679688 31.953125 20.445312 31.328125 20.199219 30.703125 C 20.066406 30.367188 19.945312 30.023438 19.808594 29.6875 C 19.789062 29.621094 19.765625 29.554688 19.730469 29.488281 C 19.597656 29.140625 19.476562 28.804688 19.339844 28.460938 C 19.320312 28.394531 19.285156 28.324219 19.261719 28.246094 C 19.207031 28.113281 19.152344 27.980469 19.097656 27.835938 C 18.972656 27.5 18.839844 27.152344 18.707031 26.820312 C 18.472656 26.214844 18.246094 25.625 18.023438 25.023438 C 17.933594 24.753906 17.835938 24.496094 17.746094 24.242188 C 17.699219 24.128906 17.65625 24.007812 17.613281 23.882812 C 17.554688 23.714844 17.488281 23.550781 17.433594 23.382812 C 17.410156 23.335938 17.398438 23.292969 17.378906 23.238281 C 17.277344 22.980469 17.1875 22.847656 16.929688 22.734375 C 16.832031 22.699219 16.730469 22.65625 16.628906 22.621094 C 16.527344 22.589844 16.429688 22.542969 16.328125 22.511719 C 16.226562 22.464844 16.117188 22.421875 16.015625 22.386719 C 15.960938 22.367188 15.894531 22.34375 15.835938 22.320312 C 15.648438 22.242188 15.457031 22.164062 15.257812 22.097656 C 15.121094 22.042969 14.988281 21.988281 14.855469 21.929688 C 13.203125 21.292969 11.550781 20.660156 9.898438 20.023438 C 9.753906 19.976562 9.609375 19.921875 9.476562 19.867188 C 9.410156 19.84375 9.339844 19.808594 9.261719 19.789062 C 8.726562 19.574219 8.179688 19.375 7.644531 19.164062 C 7.253906 19.019531 6.875 18.863281 6.484375 18.714844 C 6.25 18.628906 6.003906 18.539062 5.769531 18.449219 C 5.660156 18.402344 5.546875 18.359375 5.433594 18.316406 C 5.289062 18.257812 5.132812 18.203125 4.976562 18.148438 C 4.921875 18.113281 4.921875 18.113281 4.855469 18.089844 C 4.519531 17.96875 4.230469 17.800781 4.039062 17.488281 C 3.929688 17.144531 3.90625 16.839844 4.0625 16.496094 C 4.308594 16.136719 4.566406 16.015625 4.964844 15.859375 C 5.054688 15.816406 5.054688 15.816406 5.144531 15.78125 C 5.324219 15.703125 5.503906 15.636719 5.691406 15.558594 C 5.804688 15.511719 5.902344 15.46875 6.015625 15.425781 C 6.363281 15.289062 6.707031 15.15625 7.054688 15.011719 C 7.1875 14.964844 7.320312 14.910156 7.457031 14.855469 C 7.734375 14.742188 8.011719 14.632812 8.292969 14.519531 C 9.007812 14.242188 9.722656 13.949219 10.445312 13.671875 C 10.523438 13.636719 10.601562 13.605469 10.679688 13.570312 C 12.308594 12.925781 13.941406 12.265625 15.582031 11.617188 C 17.945312 10.660156 20.324219 9.710938 22.710938 8.761719 C 25.324219 7.722656 27.933594 6.675781 30.546875 5.625 C 30.871094 5.492188 31.195312 5.367188 31.519531 5.234375 C 31.628906 5.191406 31.753906 5.132812 31.875 5.089844 C 31.929688 5.066406 31.996094 5.042969 32.054688 5.023438 C 32.378906 4.886719 32.710938 4.753906 33.035156 4.621094 C 33.226562 4.542969 33.414062 4.464844 33.605469 4.386719 C 33.695312 4.351562 33.773438 4.308594 33.863281 4.273438 C 34.417969 4.039062 35.011719 3.828125 35.589844 4.105469 Z M 29.84375 8.136719 C 29.789062 8.160156 29.742188 8.179688 29.675781 8.203125 C 29.496094 8.269531 29.320312 8.347656 29.128906 8.425781 C 28.996094 8.480469 28.871094 8.527344 28.738281 8.582031 C 28.460938 8.695312 28.167969 8.816406 27.890625 8.929688 C 27.433594 9.105469 26.988281 9.296875 26.527344 9.476562 C 26.496094 9.496094 26.449219 9.507812 26.417969 9.519531 C 26.261719 9.585938 26.105469 9.652344 25.949219 9.710938 C 25.703125 9.808594 25.46875 9.910156 25.234375 10 C 23.660156 10.636719 22.085938 11.261719 20.523438 11.886719 C 19.886719 12.132812 19.261719 12.386719 18.636719 12.632812 C 18.570312 12.65625 18.503906 12.691406 18.425781 12.710938 C 16.519531 13.480469 14.609375 14.253906 12.699219 15.023438 C 12.367188 15.144531 12.042969 15.277344 11.707031 15.414062 C 11.640625 15.433594 11.585938 15.46875 11.519531 15.492188 C 10.300781 15.980469 9.097656 16.460938 7.878906 16.941406 C 8.046875 17.074219 8.203125 17.164062 8.414062 17.242188 C 8.472656 17.265625 8.527344 17.289062 8.582031 17.308594 C 8.648438 17.332031 8.714844 17.355469 8.773438 17.378906 C 8.839844 17.410156 8.90625 17.433594 8.972656 17.457031 C 9.117188 17.511719 9.261719 17.566406 9.410156 17.621094 C 9.753906 17.757812 10.113281 17.890625 10.457031 18.011719 C 10.582031 18.070312 10.703125 18.113281 10.824219 18.160156 C 11.605469 18.460938 12.398438 18.761719 13.179688 19.0625 C 13.402344 19.152344 13.628906 19.230469 13.851562 19.320312 C 14.464844 19.554688 15.089844 19.800781 15.703125 20.035156 C 15.925781 20.132812 16.160156 20.222656 16.382812 20.3125 C 16.496094 20.347656 16.597656 20.390625 16.695312 20.433594 C 16.839844 20.492188 16.988281 20.546875 17.121094 20.601562 C 17.164062 20.613281 17.210938 20.636719 17.242188 20.648438 C 17.488281 20.738281 17.632812 20.757812 17.878906 20.691406 C 18.003906 20.601562 18.003906 20.601562 18.113281 20.480469 C 18.160156 20.433594 18.203125 20.390625 18.246094 20.347656 C 18.292969 20.300781 18.347656 20.246094 18.394531 20.199219 C 18.472656 20.121094 18.472656 20.121094 18.550781 20.042969 C 18.695312 19.898438 18.839844 19.753906 18.984375 19.609375 C 19.140625 19.453125 19.296875 19.296875 19.453125 19.140625 C 19.722656 18.871094 19.988281 18.605469 20.257812 18.324219 C 20.648438 17.933594 21.039062 17.554688 21.429688 17.164062 C 22.054688 16.527344 22.691406 15.894531 23.316406 15.257812 C 23.929688 14.644531 24.542969 14.027344 25.15625 13.414062 C 25.210938 13.359375 25.210938 13.359375 25.277344 13.304688 C 25.46875 13.113281 25.660156 12.925781 25.847656 12.734375 C 27.421875 11.160156 28.984375 9.574219 30.558594 8.003906 C 30.289062 7.914062 30.101562 8.023438 29.84375 8.136719 Z M 31.996094 9.441406 C 30.367188 11.050781 28.75 12.667969 27.121094 14.285156 C 26.929688 14.476562 26.742188 14.664062 26.550781 14.867188 C 26.496094 14.921875 26.496094 14.921875 26.429688 14.976562 C 25.816406 15.589844 25.199219 16.207031 24.574219 16.820312 C 23.941406 17.457031 23.304688 18.082031 22.679688 18.714844 C 22.289062 19.105469 21.886719 19.496094 21.496094 19.886719 C 21.226562 20.15625 20.960938 20.414062 20.691406 20.691406 C 20.535156 20.835938 20.378906 20.992188 20.234375 21.148438 C 20.054688 21.316406 19.886719 21.484375 19.722656 21.652344 C 19.675781 21.695312 19.632812 21.753906 19.574219 21.796875 C 19.308594 22.066406 19.308594 22.066406 19.253906 22.433594 C 19.273438 22.5 19.285156 22.554688 19.308594 22.621094 C 19.332031 22.679688 19.339844 22.722656 19.351562 22.769531 C 19.375 22.8125 19.386719 22.855469 19.410156 22.902344 C 19.429688 22.957031 19.453125 23.003906 19.464844 23.058594 C 19.488281 23.113281 19.507812 23.167969 19.53125 23.226562 C 19.554688 23.28125 19.574219 23.335938 19.597656 23.402344 C 19.652344 23.527344 19.699219 23.648438 19.753906 23.785156 C 19.867188 24.050781 19.964844 24.332031 20.078125 24.597656 C 20.132812 24.742188 20.191406 24.886719 20.246094 25.035156 C 20.511719 25.726562 20.78125 26.417969 21.050781 27.109375 C 21.171875 27.445312 21.304688 27.777344 21.441406 28.113281 C 21.597656 28.539062 21.753906 28.960938 21.917969 29.375 C 22.054688 29.730469 22.199219 30.101562 22.332031 30.457031 C 22.386719 30.589844 22.445312 30.738281 22.488281 30.871094 C 22.566406 31.058594 22.632812 31.238281 22.710938 31.429688 C 22.734375 31.484375 22.757812 31.539062 22.777344 31.605469 C 22.789062 31.652344 22.8125 31.707031 22.835938 31.753906 C 22.847656 31.796875 22.867188 31.839844 22.890625 31.886719 C 22.933594 32.007812 22.933594 32.007812 23.058594 32.121094 C 23.089844 32.054688 23.113281 31.988281 23.148438 31.910156 C 24.488281 28.550781 25.824219 25.191406 27.175781 21.832031 C 28.167969 19.351562 29.164062 16.886719 30.144531 14.410156 C 30.246094 14.140625 30.355469 13.871094 30.457031 13.605469 C 30.511719 13.472656 30.570312 13.335938 30.613281 13.214844 C 30.882812 12.554688 31.136719 11.898438 31.417969 11.238281 C 31.449219 11.160156 31.449219 11.160156 31.484375 11.070312 C 31.585938 10.816406 31.695312 10.558594 31.796875 10.300781 C 31.832031 10.210938 31.875 10.132812 31.910156 10.042969 C 31.917969 10 31.941406 9.957031 31.953125 9.921875 C 32.054688 9.6875 32.054688 9.6875 31.996094 9.441406 Z M 31.996094 9.441406 "/>
</g>
</svg>
